<svg xmlns="http://www.w3.org/2000/svg" viewBox="0 0 800 200">
  <!-- Keyboard glow effect -->
  <defs>
    <filter id="blueGlow" x="-50%" y="-50%" width="200%" height="200%">
      <feGaussianBlur in="SourceGraphic" stdDeviation="4" result="blur"/>
      <feColorMatrix in="blur" type="matrix" values="0 0 0 0 0   0 0 1 0 0.8   1 0 1 0 1  0 0 0 0.6 0"/>
    </filter>
  </defs>

  <!-- Keyboard base -->
  <rect x="100" y="40" width="600" height="120" rx="10" fill="#2a2a2a"/>
  
  <!-- Keyboard frame with subtle gradient -->
  <rect x="110" y="50" width="580" height="100" rx="8" fill="url(#keyboardGrad)"/>
  <defs>
    <linearGradient id="keyboardGrad" x1="0%" y1="0%" x2="0%" y2="100%">
      <stop offset="0%" style="stop-color:#333333"/>
      <stop offset="100%" style="stop-color:#222222"/>
    </linearGradient>
  </defs>

  <!-- Keys (with glow effect) -->
  <g filter="url(#blueGlow)">
    <!-- Function key row -->
    <rect x="120" y="60" width="30" height="20" rx="3" fill="#1a1a1a"/>
    <rect x="160" y="60" width="30" height="20" rx="3" fill="#1a1a1a"/>
    <rect x="200" y="60" width="30" height="20" rx="3" fill="#1a1a1a"/>
    <rect x="240" y="60" width="30" height="20" rx="3" fill="#1a1a1a"/>
    <rect x="280" y="60" width="30" height="20" rx="3" fill="#1a1a1a"/>
    <rect x="320" y="60" width="30" height="20" rx="3" fill="#1a1a1a"/>
    <rect x="360" y="60" width="30" height="20" rx="3" fill="#1a1a1a"/>
    <rect x="400" y="60" width="30" height="20" rx="3" fill="#1a1a1a"/>
    <rect x="440" y="60" width="30" height="20" rx="3" fill="#1a1a1a"/>
    <rect x="480" y="60" width="30" height="20" rx="3" fill="#1a1a1a"/>
    <rect x="520" y="60" width="30" height="20" rx="3" fill="#1a1a1a"/>
    <rect x="560" y="60" width="30" height="20" rx="3" fill="#1a1a1a"/>
    <rect x="600" y="60" width="30" height="20" rx="3" fill="#1a1a1a"/>
    <rect x="640" y="60" width="30" height="20" rx="3" fill="#1a1a1a"/>

    <!-- Number row -->
    <rect x="120" y="90" width="30" height="20" rx="3" fill="#1a1a1a"/>
    <rect x="160" y="90" width="30" height="20" rx="3" fill="#1a1a1a"/>
    <rect x="200" y="90" width="30" height="20" rx="3" fill="#1a1a1a"/>
    <rect x="240" y="90" width="30" height="20" rx="3" fill="#1a1a1a"/>
    <rect x="280" y="90" width="30" height="20" rx="3" fill="#1a1a1a"/>
    <rect x="320" y="90" width="30" height="20" rx="3" fill="#1a1a1a"/>
    <rect x="360" y="90" width="30" height="20" rx="3" fill="#1a1a1a"/>
    <rect x="400" y="90" width="30" height="20" rx="3" fill="#1a1a1a"/>
    <rect x="440" y="90" width="30" height="20" rx="3" fill="#1a1a1a"/>
    <rect x="480" y="90" width="30" height="20" rx="3" fill="#1a1a1a"/>
    <rect x="520" y="90" width="30" height="20" rx="3" fill="#1a1a1a"/>
    <rect x="560" y="90" width="30" height="20" rx="3" fill="#1a1a1a"/>
    <rect x="600" y="90" width="30" height="20" rx="3" fill="#1a1a1a"/>
    <rect x="640" y="90" width="30" height="20" rx="3" fill="#1a1a1a"/>

    <!-- Letter rows -->
    <rect x="130" y="120" width="30" height="20" rx="3" fill="#1a1a1a"/>
    <rect x="170" y="120" width="30" height="20" rx="3" fill="#1a1a1a"/>
    <rect x="210" y="120" width="30" height="20" rx="3" fill="#1a1a1a"/>
    <rect x="250" y="120" width="30" height="20" rx="3" fill="#1a1a1a"/>
    <rect x="290" y="120" width="30" height="20" rx="3" fill="#1a1a1a"/>
    <rect x="330" y="120" width="30" height="20" rx="3" fill="#1a1a1a"/>
    <rect x="370" y="120" width="30" height="20" rx="3" fill="#1a1a1a"/>
    <rect x="410" y="120" width="30" height="20" rx="3" fill="#1a1a1a"/>
    <rect x="450" y="120" width="30" height="20" rx="3" fill="#1a1a1a"/>
    <rect x="490" y="120" width="30" height="20" rx="3" fill="#1a1a1a"/>
    <rect x="530" y="120" width="30" height="20" rx="3" fill="#1a1a1a"/>
    <rect x="570" y="120" width="30" height="20" rx="3" fill="#1a1a1a"/>
    <rect x="610" y="120" width="30" height="20" rx="3" fill="#1a1a1a"/>
  </g>
</svg>
